<svg version="1.1" id="Layer_1" xmlns="http://www.w3.org/2000/svg" xmlns:xlink="http://www.w3.org/1999/xlink" x="0px" y="0px" viewBox="0 0 97.7 21.3" style="enable-background:new 0 0 97.7 21.3;" xml:space="preserve">
  <style type="text/css">
    .st0{fill:#F7F7F7;}
    .st1{fill:#C03B2B;}
  </style>
  <title>securelyid-logo</title>
  <path class="st0" d="M39.9,5.3c-0.1,0.9-0.6,1.6-1.4,2v5.5c0,0-0.8,0.7-1.1,0.7c-0.4,0-1.1-0.7-1.1-0.7v-1.2L37,11l-0.8-0.6V9.4  L37,8.8l-0.7-0.6V7.3c-0.8-0.4-1.3-1.2-1.4-2h-2.6v6.8c0,0-0.1,3.8,5,3.8s5.2-3.8,5.2-3.8V5.3H39.9z"/>
  <path class="st1" d="M41.4,5.1c0-2.2-1.8-4-4-4c-2.2,0-4,1.8-4,4v0.2h1.5c0-0.1,0-0.1,0-0.2c0-1.4,1.1-2.5,2.5-2.5s2.5,1.1,2.5,2.5  c0,0.1,0,0.1,0,0.2h1.5C41.4,5.3,41.4,5.2,41.4,5.1z"/>
  <path class="st0" d="M10.8,11.8c0,0.8-0.2,1.6-0.6,2.3c-0.5,0.7-1.1,1.2-1.9,1.5c-0.9,0.4-1.9,0.6-2.9,0.5c-0.8,0-1.5-0.1-2.3-0.2  c-0.7-0.1-1.3-0.4-1.9-0.7V12c0.7,0.4,1.4,0.6,2.2,0.9c0.7,0.2,1.4,0.3,2.1,0.3c0.4,0,0.8-0.1,1.2-0.3c0.2-0.2,0.4-0.4,0.4-0.7  c0-0.2-0.1-0.3-0.2-0.5c-0.1-0.2-0.3-0.3-0.5-0.4c-0.2-0.1-0.9-0.4-1.8-0.9c-0.7-0.3-1.4-0.7-2-1.2c-0.4-0.4-0.8-0.8-1-1.4  C1.4,7.2,1.3,6.6,1.3,6c-0.1-1.2,0.5-2.3,1.4-3C3.8,2.3,5.1,1.9,6.5,2c1.5,0,3,0.4,4.3,1L9.7,5.9C8.6,5.4,7.5,5.1,6.3,5  C6,5,5.6,5.1,5.3,5.2C5.1,5.4,5,5.6,5,5.9c0,0.3,0.2,0.6,0.4,0.7c0.7,0.5,1.5,0.8,2.3,1.2c0.9,0.4,1.8,1,2.5,1.7  C10.6,10.2,10.8,11,10.8,11.8z"/>
  <path class="st0" d="M16.9,16.2c-1.5,0.1-3-0.4-4.1-1.4c-1-1.1-1.6-2.5-1.5-4c0-1.8,0.5-3.2,1.4-4.1c1-1,2.4-1.5,3.9-1.4  c1.4-0.1,2.7,0.4,3.7,1.3c0.9,1,1.4,2.3,1.3,3.6v1.6H15c0,0.5,0.2,1.1,0.6,1.4c0.5,0.4,1.1,0.5,1.7,0.5c0.6,0,1.2-0.1,1.8-0.2  c0.6-0.1,1.2-0.4,1.8-0.6v2.6c-0.6,0.3-1.2,0.5-1.8,0.6C18.4,16.1,17.6,16.2,16.9,16.2z M16.7,7.6c-0.4,0-0.8,0.1-1.1,0.4  c-0.3,0.3-0.5,0.8-0.5,1.3h3.2c0-0.4-0.1-0.9-0.4-1.2C17.5,7.8,17.1,7.6,16.7,7.6z"/>
  <path class="st0" d="M27.5,16.2c-1.7,0-3.1-0.5-4-1.4c-1-1.1-1.4-2.6-1.3-4c-0.1-1.5,0.4-3,1.5-4.1c1.1-1,2.6-1.6,4.1-1.5  c1.2,0,2.4,0.3,3.5,0.8l-1.1,2.7c-0.4-0.2-0.8-0.3-1.2-0.5C28.6,8.1,28.2,8,27.8,8c-0.5,0-1.1,0.2-1.4,0.7c-0.4,0.6-0.5,1.3-0.5,2  c0,1.7,0.6,2.5,1.9,2.5c1.1,0,2.2-0.3,3.1-0.9v2.9C29.9,15.9,28.7,16.2,27.5,16.2z"/>
  <path class="st0" d="M50.7,5.1c0.3,0,0.6,0,0.9,0.1l0.2,0l-0.3,3.5c-0.4-0.1-0.8-0.1-1.3-0.1c-0.6-0.1-1.3,0.1-1.8,0.5  c-0.4,0.4-0.6,1-0.5,1.6V16h-3.6V5.3h2.7L47.6,7h0.2c0.3-0.6,0.7-1,1.3-1.4C49.6,5.3,50.2,5.1,50.7,5.1z"/>
  <path class="st0" d="M57.5,16.2c-1.5,0.1-3-0.4-4.1-1.4c-1-1.1-1.6-2.5-1.5-4c0-1.8,0.5-3.2,1.4-4.1c1-1,2.4-1.5,3.9-1.4  c1.4-0.1,2.7,0.4,3.7,1.3c0.9,1,1.4,2.3,1.3,3.6v1.6h-6.6c0,0.5,0.2,1.1,0.6,1.4c0.5,0.4,1.1,0.5,1.7,0.5c0.6,0,1.2-0.1,1.8-0.2  c0.6-0.1,1.2-0.4,1.8-0.6v2.6c-0.6,0.3-1.2,0.5-1.8,0.6C59,16.1,58.3,16.2,57.5,16.2z M57.3,7.6c-0.4,0-0.8,0.1-1.1,0.4  c-0.3,0.3-0.5,0.8-0.5,1.3h3.2c0-0.4-0.1-0.9-0.4-1.2C58.2,7.8,57.7,7.6,57.3,7.6z"/>
  <path class="st0" d="M67,16h-3.7V1.3H67V16z"/>
  <path class="st0" d="M67.3,5.3h3.9l1.8,6.1c0.1,0.4,0.2,0.8,0.2,1.2h0.1c0-0.4,0.1-0.8,0.2-1.1l1.9-6.1h3.7l-4.2,11.3  c-0.4,1.2-1.1,2.2-2,3.1c-0.9,0.6-2,0.9-3.1,0.9c-0.5,0-1-0.1-1.5-0.2v-2.9c0.4,0.1,0.8,0.1,1.1,0.1c0.3,0,0.6-0.1,0.9-0.2  c0.2-0.1,0.5-0.3,0.6-0.5c0.2-0.3,0.4-0.7,0.6-1.1L67.3,5.3z"/>
  <path class="st1" d="M79.6,16V2.2h3.7V16H79.6z"/>
  <path class="st1" d="M97,8.8c0,2.3-0.6,4.1-1.9,5.3c-1.3,1.2-3,1.9-5.3,1.9h-4.5V2.2H90c2.2,0,3.9,0.6,5.1,1.7S96.9,6.7,97,8.8z   M93.1,8.9c0.1-1-0.2-2-0.7-2.8c-0.6-0.6-1.4-1-2.3-0.9H89v7.7h0.8c0.9,0.1,1.9-0.3,2.5-1C92.9,11.1,93.2,10,93.1,8.9L93.1,8.9z"/>
</svg>
